<ttFont>
<head>
    <!-- Most of this table will be recalculated by the compiler -->
    <tableVersion value="1.0"/>
    <fontRevision value="1.09"/>
    <checkSumAdjustment value="0x928b2eb1"/>
    <magicNumber value="0x5f0f3cf5"/>
    <flags value="00000000 00000011"/>
    <unitsPerEm value="1000"/>
    <created value="Sun Oct  7 02:25:32 2018"/>
    <modified value="Sat Aug  1 00:45:10 2020"/>
    <xMin value="-323"/>
    <yMin value="-291"/>
    <xMax value="2077"/>
    <yMax value="969"/>
    <macStyle value="00000000 00000010"/>
    <lowestRecPPEM value="3"/>
    <fontDirectionHint value="2"/>
    <indexToLocFormat value="0"/>
    <glyphDataFormat value="0"/>
  </head>
          <CharString index="0">
            228 -12 rmoveto
            63 55 24 28 39 hvcurveto
            -30 51 rlineto
            -23 -31 -40 -19 -38 hhcurveto
            -85 -65 53 127 18 hvcurveto
            316 hlineto
            7 18 10 37 38 vvcurveto
            100 -41 76 -109 -127 -133 -124 -183 -130 76 -73 115 vhcurveto
            -106 293 rmoveto
            94 25 70 62 71 35 callsubr
            -15 -3 -15 hvcurveto
            return
          </CharString>
          <CharString index="1">
            287 -12 rmoveto
            188 131 205 201 12 callsubr
            -166 80 -109 147 hvcurveto
            4 67 rmoveto
            -105 -47 86 57 callsubr
            95 178 141 104 48 -85 -129 -153 -95 -179 -141 hvcurveto
            return
          </CharString>
          <CharString index="2">
            rmoveto
            37 72 33 66 35 76 rrcurveto
            4 hlineto
            5 -75 7 -70 6 -69 10 -112 rcurveline
            -195 hlineto
            -222 -265 rmoveto
            86 hlineto
            105 205 15 callsubr
            18 -205 rlineto
            81 hlineto
            -76 656 rlineto
            -90 hlineto
            return
          </CharString>
          <CharString index="3">
            212 -12 rmoveto
            133 130 131 184 121 -69 74 -105 -133 -129 -131 -184 -121 68 -74 105 hvcurveto
            -96 callgsubr
            return
          </CharString>
          <CharString index="4">
            -102 callgsubr
            endchar
          </CharString>
          <CharString index="5">
            -52 hhcurveto
            -80 callsubr
            -51 callsubr
            hvcurveto
            28 64 -75 callgsubr
            return
          </CharString>
          <CharString index="6">
            hhcurveto
            -50 -22 -95 callsubr
            -6 -26 -2 9 callgsubr
            33 -47 82 return
          </CharString>
          <CharString index="7">
            14 66 rlineto
            -294 -32 callsubr
            239 -32 callgsubr
            -241 hlineto
            42 213 rlineto
            285 18 callgsubr
            -362 hlineto
            return
          </CharString>
          <CharString index="8">
            300 -12 rmoveto
            75 63 27 40 48 45 callsubr
            rlineto
            -206 hlineto
            -13 -64 rlineto
            136 hlineto
            -37 -181 rlineto
            -22 -26 -38 -18 -48 hhcurveto
            -126 -48 89 117 159 100 182 165 53 36 -29 -42 25 hvcurveto
            55 41 rlineto
            56 -33 -54 41 -78 -54 callgsubr
            return
          </CharString>
          <CharString index="9">
            231 -12 rmoveto
            133 95 84 117 73 -36 44 -63 37 hvcurveto
            -76 45 rlineto
            -48 29 -37 27 51 vvcurveto
            53 45 53 74 61 46 -31 -40 34 vhcurveto
            51 46 rlineto
            53 -41 -67 39 -78 hhcurveto
            -118 -86 -83 -99 -74 45 -46 56 -34 hvcurveto
            76 -46 rlineto
            49 -30 33 -30 -48 vvcurveto
            -75 -61 -49 -80 -73 -57 35 58 -39 vhcurveto
            -57 -43 rlineto
            -78 53 76 -38 90 hhcurveto
            return
          </CharString>
          <CharString index="10">
            -6 -209 rmoveto
            93 59 73 95 51 hvcurveto
            286 527 rlineto
            -76 hlineto
            -140 -273 -24 -46 -25 -53 -23 -46 rlinecurve
            -4 hlineto
            -4 46 -5 55 -7 44 -38 273 rcurveline
            -76 hlineto
            83 -487 -18 -35 rlineto
            -67 -33 -45 -44 -49 hhcurveto
            -13 -11 3 6 -12 hvcurveto
            -25 -57 rlineto
            -10 19 23 -4 14 hhcurveto
            return
          </CharString>
          <CharString index="11">
            rmoveto
            -67 -37 48 88 136 88 111 89 67 37 -49 -88 -39 callsubr
            -90 hvcurveto
            return
          </CharString>
          <CharString index="12">
            26 49 -44 callgsubr
            hvcurveto
            61 300 -49 callgsubr
            -62 -310 rlineto
            return
          </CharString>
          <CharString index="13">
            rmoveto
            116 66 138 124 87 -46 65 -77 -116 -66 -138 -124 -87 46 -65 77 hvcurveto
            5 50 rmoveto
            -49 -20 45 61 96 43 112 75 49 20 -45 -61 -96 -43 -112 -75 hvcurveto
            return
          </CharString>
          <CharString index="14">
            35 hmoveto
            370 hlineto
            -100 callsubr
            return
          </CharString>
          <CharString index="15">
            103 79 59 91 59 -32 33 -82 46 hvcurveto
            -43 24 -43 22 40 vvcurveto
            41 36 35 51 44 34 -20 -26 25 vhcurveto
            46 40 rlineto
            40 -37 -50 26 -61 hhcurveto
            -88 -73 -59 -86 -55 42 -39 61 -35 hvcurveto
            75 -42 22 -19 -35 vvcurveto
            -47 -47 -34 -56 return
          </CharString>
          <CharString index="16">
            rmoveto
            79 72 60 91 70 -46 44 -65 -15 -22 -4 -11 -17 hvcurveto
            29 101 rlineto
            158 hlineto
            10 51 rlineto
            -207 hlineto
            -52 -187 23 -23 rlineto
            18 25 19 11 30 hhcurveto
            42 28 -28 -48 -58 -45 -38 -44 -50 -42 callgsubr
            66 hhcurveto
            return
          </CharString>
          <CharString index="17">
            139 hmoveto
            77 hlineto
            52 256 274 400 rlineto
            -83 hlineto
            -124 -188 -32 -48 -29 -47 -30 -49 rlinecurve
            -3 hlineto
            -12 50 -9 45 -12 48 -45 189 rcurveline
            -80 hlineto
            107 -400 rlineto
            return
          </CharString>
          <CharString index="18">
            hstem
            79 78 vstem
            -105 callgsubr
            return
          </CharString>
          <CharString index="19">
            21 callgsubr
            hintmask 11010100
            -63 callgsubr
            hintmask 11101000
            -19 callsubr
            hintmask 11010100
            -66 callgsubr
            hintmask 11101000
            -69 callgsubr
          </CharString>
          <CharString index="20">
            77 vstem
            35 hmoveto
            -79 callgsubr
            15 -315 rmoveto
            50 253 rlineto
            96 hlineto
            96 51 -29 -72 -93 -69 -59 -125 hvcurveto
            return
          </CharString>
          <CharString index="21">
            rmoveto
            56 37 38 39 40 35 -30 -76 vhcurveto
            -6 vlineto
            -34 -26 -34 -15 -28 hhcurveto
            -39 -24 26 41 hvcurveto
            8 -271 rmoveto
            104 96 92 170 93 -56 59 -71 -69 -68 -57 -91 -61 40 -45 66 39 36 21 24 22 hvcurveto
            -101 -14 -57 -55 -63 hhcurveto
            -29 -21 9 18 -19 hvcurveto
            -34 -38 rlineto
            -25 25 33 -13 40 hhcurveto
            endchar
          </CharString>
          <CharString index="22">
            216 -12 rmoveto
            71 50 30 27 35 hvcurveto
            -34 50 rlineto
            -23 -30 -35 -20 -43 hhcurveto
            -77 -38 48 88 133 91 114 97 38 23 -14 -30 25 hvcurveto
            45 48 rlineto
            33 -29 -39 26 -58 hhcurveto
            -141 -130 -134 -181 -124 73 -71 106 hvcurveto
            return
          </CharString>
          <CharString index="23">
            -29 callgsubr
            hintmask 11101000
            -88 callgsubr
            hintmask 11110000
            -79 callsubr
            endchar
          </CharString>
          <CharString index="24">
            rlineto
            63 -60 callgsubr
            return
          </CharString>
          <CharString index="25">
            vstem
            35 hmoveto
            73 hlineto
            74 370 11 59 9 75 8 59 rlinecurve
            4 hlineto
            22 -146 61 -348 rlineto
            44 hlineto
            193 348 79 146 rlineto
            4 hlineto
            -16 -57 -19 -77 -12 -59 -76 -370 rcurveline
            75 -8 callsubr
            -93 hlineto
            -195 -354 -70 -136 -46 callsubr
            -22 136 -57 354 rlineto
            -93 hlineto
            return
          </CharString>
          <CharString index="26">
            hstem
            32 75 254 76 vstem
            -107 callgsubr
            return
          </CharString>
          <CharString index="27">
            -135 -128 -147 -187 return
          </CharString>
          <CharString index="28">
            76 31 -32 -39 -44 -38 -28 -47 -44 -42 callgsubr
            65 hhcurveto
            return
          </CharString>
          <CharString index="29">
            31 hmoveto
            76 hlineto
            -68 callsubr
            -61 -300 rlineto
            77 hlineto
            62 310 rlineto
            5 27 3 17 23 vvcurveto
            75 -34 46 -81 -50 -60 -36 -59 -62 vhcurveto
            53 -7 -28 42 -77 hhcurveto
            -51 -57 43 callgsubr
            return
          </CharString>
          <CharString index="30">
            rmoveto
            52 hlineto
            484 684 rlineto
            -52 hlineto
            return
          </CharString>
          <CharString index="31">
            -191 -5 -132 -52 -138 vvcurveto
            return
          </CharString>
          <CharString index="32">
            rlineto
            6 27 2 17 23 vvcurveto
            75 -33 46 -82 return
          </CharString>
          <CharString index="33">
            vstem
            -1 hmoveto
            426 hlineto
            15 66 rlineto
            -331 hlineto
            422 544 10 46 rlineto
            -393 hlineto
            -14 -65 rlineto
            300 hlineto
            -425 -544 rlineto
            return
          </CharString>
          <CharString index="34">
            -3 -9 -3 0 -4 hhcurveto
            -10 -7 6 12 4 0 5 2 10 hvcurveto
            return
          </CharString>
          <CharString index="35">
            65 hlineto
            29 126 43 110 124 120 4 34 rcurveline
            -261 hlineto
            -10 -51 rlineto
            193 hlineto
            -98 -104 -56 -106 -33 -129 rrcurveto
            return
          </CharString>
          <CharString index="36">
            -7 -15 -17 -8 -19 hhcurveto
            -46 -16 20 40 13 1 11 2 12 hvcurveto
            return
          </CharString>
          <CharString index="37">
            105 hmoveto
            92 hlineto
            118 266 20 46 19 49 20 48 rlinecurve
            4 hlineto
            1 -48 1 -49 1 -46 14 -266 rcurveline
            95 hlineto
            221 486 rlineto
            -72 hlineto
            return
          </CharString>
          <CharString index="38">
            107 -12 -57 callgsubr
            return
          </CharString>
          <CharString index="39">
            -33 callsubr
            57 51 27 29 hhcurveto
            48 -3 callgsubr
            -33 callsubr
            58 51 27 28 hhcurveto
            48 23 -68 callgsubr
            return
          </CharString>
          <CharString index="40">
            -55 callgsubr
            -49 -53 -30 -51 hhcurveto
            return
          </CharString>
          <CharString index="41">
            -73 callsubr
            125 623 -49 callgsubr
            return
          </CharString>
          <CharString index="42">
            -123 -619 rlineto
            -4 -17 -2 -14 -11 vvcurveto
            -40 22 -23 43 vhcurveto
            return
          </CharString>
          <CharString index="43">
            62 -12 61 201 51 135 62 return
          </CharString>
          <CharString index="44">
            52 callgsubr
            78 -43 callgsubr
            return
          </CharString>
          <CharString index="45">
            -14 -68 -8 -76 -8 -65 rrcurveto
            -35 callsubr
            return
          </CharString>
          <CharString index="46">
            rmoveto
            48 36 -114 177 -66 -49 rlineto
            endchar
          </CharString>
          <CharString index="47">
            -17 286 rlineto
            -75 hlineto
            -128 -286 -21 -46 -17 -45 -20 -45 rlinecurve
            -4 hlineto
            -1 45 -1 45 -1 46 -16 286 rcurveline
            -76 hlineto
            return
          </CharString>
          <CharString index="48">
            -12 61 180 52 156 61 return
          </CharString>
          <CharString index="49">
            50 callsubr
            13 67 rlineto
            -459 hlineto
            -13 -67 44 callgsubr
            return
          </CharString>
          <CharString index="50">
            171 -220 rmoveto
            121 78 70 127 26 hvcurveto
            return
          </CharString>
          <CharString index="51">
            16 callgsubr
            62 312 56 callsubr
            -63 -312 rlineto
            78 -8 callsubr
            -77 hlineto
            -56 -277 rlineto
            -296 hlineto
            56 277 -20 callgsubr
            return
          </CharString>
          <CharString index="52">
            rmoveto
            hintmask 01010000
            70 26 45 51 68 vvcurveto
            32 -17 21 -25 vhcurveto
            hintmask 01100000
            -26 -23 -16 -32 -23 17 -14 20 -27 callgsubr
            hintmask 10010000
            -6 -36 -28 -24 -42 -17 rrcurveto
            endchar
          </CharString>
          <CharString index="53">
            rmoveto
            44 20 rlineto
            -21 48 -8 69 54 vvcurveto
            117 41 105 89 110 vhcurveto
            -38 22 rlineto
            -104 -121 -45 -97 -135 vvcurveto
            -71 16 -66 26 -55 vhcurveto
            endchar
          </CharString>
          <CharString index="54">
            vstem
            -50 callsubr
            return
          </CharString>
          <CharString index="55">
            97 37 34 -21 -51 return
          </CharString>
          <CharString index="56">
            -114 55 -62 85 return
          </CharString>
          <CharString index="57">
            35 hmoveto
            354 hlineto
            13 23 callgsubr
            118 590 -20 callgsubr
            return
          </CharString>
          <CharString index="58">
            131 656 rlineto
            return
          </CharString>
          <CharString index="59">
            72 16 74 59 89 vvcurveto
            95 -77 50 -126 vhcurveto
            -175 hlineto
            21 -282 rmoveto
            44 221 rlineto
            91 hlineto
            99 44 -35 -60 -74 -59 -52 -125 hvcurveto
            -157 -313 rmoveto
            52 256 rlineto
            116 hlineto
            return
          </CharString>
          <CharString index="60">
            19 callsubr
            hstem
            57 80 -81 callgsubr
            return
          </CharString>
          <CharString index="61">
            rlineto
            -4 hlineto
            return
          </CharString>
          <CharString index="62">
            61 47 27 38 hhcurveto
            50 return
          </CharString>
          <CharString index="63">
            18 -209 62 633 -31 callgsubr
            return
          </CharString>
          <CharString index="64">
            80 21 -21 205 27 callgsubr
            return
          </CharString>
          <CharString index="65">
            1 callgsubr
            hstemhm
            35 579 hintmask 01011000
            -6 callgsubr
            hintmask 01101000
            -80 callgsubr
            hintmask 10011000
            -62 callsubr
            return
          </CharString>
          <CharString index="66">
            -39 callgsubr
            56 rlineto
            13 -25 -26 1 callsubr
            return
          </CharString>
          <CharString index="67">
            186 -12 19 callgsubr
            return
          </CharString>
          <CharString index="68">
            -136 -87 -110 return
          </CharString>
          <CharString index="69">
            rlineto
            -254 hlineto
            return
          </CharString>
          <CharString index="70">
            -127 -286 -21 -46 -16 -45 -19 -45 rlinecurve
            -4 hlineto
            -2 45 -1 45 -2 46 rrcurveto
            return
          </CharString>
          <CharString index="71">
            -21 486 -20 return
          </CharString>
          <CharString index="72">
            -4 hlineto
            -42 137 -150 420 -20 callgsubr
            return
          </CharString>
          <CharString index="73">
            73 0 -10 callgsubr
            return
          </CharString>
          <CharString index="74">
            69 344 rlineto
            61 return
          </CharString>
          <CharString index="75">
            hlineto
            51 246 rlineto
            return
          </CharString>
          <CharString index="76">
            -12 rmoveto
            126 114 96 152 111 -71 57 -96 -33 -28 -9 -11 -23 hvcurveto
            52 188 rlineto
            233 57 callgsubr
            -299 hlineto
            -80 -301 33 -26 rlineto
            23 42 24 10 41 hhcurveto
            69 46 -40 -82 -103 -75 -67 -83 -75 -39 41 44 -29 hvcurveto
            -50 -41 rlineto
            -60 39 62 -48 87 hhcurveto
            endchar
          </CharString>
          <CharString index="77">
            -44 -217 rlineto
            return
          </CharString>
          <CharString index="78">
            -25 callsubr
            rlineto
            return
          </CharString>
          <CharString index="79">
            60 hlineto
            77 390 rlineto
            -47 hlineto
            return
          </CharString>
          <CharString index="80">
            55 61 31 38 42 return
          </CharString>
          <CharString index="81">
            -32 -21 -26 -10 -52 -8 rrcurveto
            return
          </CharString>
          <CharString index="82">
            15 73 rlineto
            57 11 31 36 47 hhcurveto
            26 18 -8 -9 16 hvcurveto
            27 56 rlineto
            13 -27 -27 10 -39 hhcurveto
            -84 -55 -59 -98 -21 hvcurveto
            -14 -71 -65 -5 return
          </CharString>
          <CharString index="83">
            -49 -217 rmoveto
            84 41 63 93 19 hvcurveto
            111 547 -49 callgsubr
            -111 -548 -7 callgsubr
            return
          </CharString>
          <CharString index="84">
            hmoveto
            35 176 rlineto
            83 23 callsubr
            -83 hlineto
            80 400 rlineto
            -84 hlineto
            -350 -410 -9 -52 rlineto
            279 hlineto
            -35 -176 rlineto
            -150 238 rmoveto
            182 212 rlineto
            hintmask 11101000
            27 32 26 35 27 37 rrcurveto
            4 hlineto
            -10 -44 -13 -45 -8 -38 -38 -189 rcurveline
            endchar
          </CharString>
          <CharString index="85">
            rmoveto
            104 120 45 97 136 vvcurveto
            70 -17 67 -26 55 vhcurveto
            -43 -21 rlineto
            21 -48 8 -69 -54 vvcurveto
            -117 -41 -105 -90 -110 vhcurveto
            endchar
          </CharString>
          <CharString index="86">
            vstem
            200 -12 rmoveto
            142 120 204 239 124 -56 95 -100 -142 -122 -207 -238 -125 57 -92 101 hvcurveto
            return
          </CharString>
          <CharString index="87">
            hlineto
            17 83 rlineto
            57 11 -39 callgsubr
            return
          </CharString>
          <CharString index="88">
            -47 -22 -48 -43 -56 vvcurveto
            -61 51 -42 70 vhcurveto
            return
          </CharString>
          <CharString index="89">
            -83 callsubr
            -76 hlineto
            return
          </CharString>
          <CharString index="90">
            20 61 rlineto
            3 hlineto
            -44 23 42 -29 52 hhcurveto
            -3 64 rmoveto
            -38 -34 21 51 -27 hvcurveto
            return
          </CharString>
          <CharString index="91">
            -75 callgsubr
            -49 -53 -30 -51 hhcurveto
            return
          </CharString>
          <CharString index="92">
            79 -79 112.5 return
          </CharString>
          <CharString index="93">
            -26 callgsubr
            hintmask 10100000
            -26 callsubr
            hintmask 01100000
            10 callsubr
            endchar
          </CharString>
          <CharString index="94">
            47 callgsubr
            -5 callgsubr
            return
          </CharString>
          <CharString index="95">
            -346 -12 684 hstem
            -211 536 vstem
            -211 14 callsubr
            endchar
          </CharString>
          <CharString index="96">
            76 hlineto
            -21 callgsubr
            return
          </CharString>
          <CharString index="97">
            -24 callgsubr
            62 hlineto
            -103 callgsubr
            return
          </CharString>
          <CharString index="98">
            vstem
            159 -12 rmoveto
            114 67 83 113 22 hvcurveto
            94 472 -20 callgsubr
            -92 -461 rlineto
            -87 -17 -42 -53 -66 hhcurveto
            -55 -38 29 48 -19 hvcurveto
            -51 -43 rlineto
            -61 28 55 -40 78 hhcurveto
            return
          </CharString>
          <CharString index="99">
            hlineto
            -49 callsubr
            return
          </CharString>
          <CharString index="100">
            -17 callsubr
            46 231 5 callgsubr
            return
          </CharString>
          <CharString index="101">
            35 hmoveto
            210 hlineto
            156 117 64 146 75 -53 42 -68 16 hvcurveto
            1 4 rlineto
            return
          </CharString>
          <CharString index="102">
            -12 22 22 -7 31 hhcurveto
            return
          </CharString>
          <CharString index="103">
            -71 callsubr
            57 278 31 callsubr
            -36 -134 return
          </CharString>
          <CharString index="104">
            21 18 callsubr
            return
          </CharString>
          <CharString index="105">
            -21 432 66 -12 -20 return
          </CharString>
          <CharString index="106">
            60.5 -50.5 64 return
          </CharString>
          <CharString index="107">
            rmoveto
            54 hlineto
            86 383 19 92 -49 callgsubr
            return
          </CharString>
          <CharString index="108">
            10 -35 hhcurveto
            -82 -52 -59 -98 -20 hvcurveto
            -16 -81 return
          </CharString>
          <CharString index="109">
            hmoveto
            76 hlineto
            85 424 rlineto
            return
          </CharString>
          <CharString index="110">
            30 callsubr
            -85 -424 rlineto
            76 hlineto
            86 424 50 callsubr
            return
          </CharString>
          <CharString index="111">
            -21 429 69 -12 -20 23 -20 return
          </CharString>
          <CharString index="112">
            47 -27 callgsubr
            return
          </CharString>
          <CharString index="113">
            179 -12 rmoveto
            return
          </CharString>
          <CharString index="114">
            57 -1 55 98 56 -27 54 return
          </CharString>
          <CharString index="115">
            -21 278 63 253 62 return
          </CharString>
          <CharString index="116">
            98 28 66 80 98 vvcurveto
            40 -19 26 -35 -39 -25 -31 -33 -30 22 -18 30 vhcurveto
            2 hlineto
            -9 -48 -39 -42 -63 -24 rrcurveto
            endchar
          </CharString>
          <CharString index="117">
            -8 -39 rlineto
            90 hlineto
            return
          </CharString>
          <CharString index="118">
            134 128 147 187 return
          </CharString>
          <CharString index="119">
            165 -80 109 -147 -188 -131 -205 -200 return
          </CharString>
          <CharString index="120">
            -19 13 callgsubr
            44 -23 -42 29 -52 hhcurveto
            return
          </CharString>
          <CharString index="121">
            -12 -77 callsubr
            return
          </CharString>
          <CharString index="122">
            rlineto
            232 hlineto
            return
          </CharString>
          <CharString index="123">
            -76 56 -42 65 return
          </CharString>
          <CharString index="124">
            rmoveto
            52 hlineto
            42 153 19 92 rlineto
            -75 hlineto
            -15 -92 rlineto
            return
          </CharString>
          <CharString index="125">
            -21 656 -20 return
          </CharString>
          <CharString index="126">
            158 -12 30 callgsubr
            return
          </CharString>
          <CharString index="127">
            0 34 callgsubr
            return
          </CharString>
          <CharString index="128">
            rlineto
            -59 hlineto
            hintmask 11010000
            -37 -23 -46 -15 return
          </CharString>
          <CharString index="129">
            -11 -57 rlineto
            71 hlineto
            return
          </CharString>
          <CharString index="130">
            hlineto
            12 62 rlineto
            return
          </CharString>
          <CharString index="131">
            66 213 65 return
          </CharString>
          <CharString index="132">
            49 111 44 161 49 return
          </CharString>
          <CharString index="133">
            277 0 64 345 77 return
          </CharString>
          <CharString index="134">
            49 143 41 133 48 return
          </CharString>
          <CharString index="135">
            11 93 rlineto
            -63 hlineto
            return
          </CharString>
          <CharString index="136">
            -12 61 539 62 hstem
            42 72 return
          </CharString>
          <CharString index="137">
            -11 -57 rlineto
            63 hlineto
            return
          </CharString>
          <CharString index="138">
            rlineto
            125 23 callsubr
            -123 hlineto
            27 134 rlineto
            -65 hlineto
            return
          </CharString>
          <CharString index="139">
            -29 51 hhcurveto
            11 callsubr
            113 -55 63 -85 return
          </CharString>
          <CharString index="140">
            6 64 rlineto
            -63 hlineto
            103 -434 rmoveto
            -38 -34 20 50 -27 hvcurveto
            return
          </CharString>
          <CharString index="141">
            68 hintmask 11101000
            222 -12 rmoveto
            return
          </CharString>
          <CharString index="142">
            hhcurveto
            70 24 -53 -55 -18 -2 return
          </CharString>
          <CharString index="143">
            -21 424 62 176 62 return
          </CharString>
          <CharString index="144">
            -28 -12 59 391 60 return
          </CharString>
          <CharString index="145">
            rlineto
            114 hlineto
            return
          </CharString>
          <CharString index="146">
            -76 callsubr
            16 callsubr
            vhcurveto
            return
          </CharString>
          <CharString index="147">
            61 256 57 221 61 hstemhm
            442 76 -53 79 return
          </CharString>
          <CharString index="148">
            59 187 59 return
          </CharString>
          <CharString index="149">
            5 -36 callgsubr
            return
          </CharString>
          <CharString index="150">
            31 -3 callsubr
            return
          </CharString>
          <CharString index="151">
            410 57 -410 hlineto
            return
          </CharString>
          <CharString index="152">
            hvcurveto
            57 284 return
          </CharString>
          <CharString index="153">
            38 32 12 10 return
          </CharString>
          <CharString index="154">
            -250 1000 hstem
            95 52 return
          </CharString>
          <CharString index="155">
            113 136 75 return
          </CharString>
          <CharString index="156">
            -60 31 -48 85 return
          </CharString>
          <CharString index="157">
            rlineto
            191 hlineto
            return
          </CharString>
          <CharString index="158">
            5 8 -13 hvcurveto
            return
          </CharString>
          <CharString index="159">
            -192 -217 63 -42 -21 703 -20 return
          </CharString>
          <CharString index="160">
            97 53 -45 -66 -102 -79 -43 -125 hvcurveto
            return
          </CharString>
          <CharString index="161">
            -152 45 360 50 360 45 hstemhm
            return
          </CharString>
          <CharString index="162">
            120 21 -21 264 63 267 62 return
          </CharString>
          <CharString index="163">
            rlineto
            296 hlineto
            return
          </CharString>
          <CharString index="164">
            128 154 return
          </CharString>
          <CharString index="165">
            412 vstem
            120 hmoveto
            80 hlineto
            return
          </CharString>
          <CharString index="166">
            rlineto
            -139 hlineto
            endchar
          </CharString>
          <CharString index="167">
            153 770 rlineto
            return
          </CharString>
          <CharString index="168">
            hvcurveto
            hintmask 1011111110000000
            return
          </CharString>
          <CharString index="169">
            hlineto
            11 45 rlineto
            return
          </CharString>
          <CharString index="170">
            rlineto
            112 hlineto
            return
          </CharString>
          <CharString index="171">
            -12 64 292 60 168 66 hstem
            return
          </CharString>
          <CharString index="172">
            50 21 -21 return
          </CharString>
        <CharString name=".notdef">
          198 endchar
        </CharString>
        <CharString name="A">
          -43 callsubr
          hstem
          -53 522 vstem
          227 377 -105 callsubr
          endchar
        </CharString>
        <CharString name="B">
          153 0 40 callsubr
          hintmask 11110000
          -6 callsubr
          hintmask 11101000
          -48 callsubr
          hintmask 11110000
          53 callsubr
          endchar
        </CharString>
        <CharString name="C">
          -30 callgsubr
          endchar
        </CharString>
        <CharString name="D">
          162 0 64 529 63 hstem
          487 -73 callgsubr
          endchar
        </CharString>
        <CharString name="E">
          -46 callgsubr
          endchar
        </CharString>
        <CharString name="F">
          71 callgsubr
          hstem
          35 493 16 callgsubr
          60 297 rlineto
          240 57 callgsubr
          -241 hlineto
          45 228 rlineto
          285 18 callgsubr
          -362 hlineto
          endchar
        </CharString>
        <CharString name="G">
          -47 callsubr
          endchar
        </CharString>
        <CharString name="H">
          192 21 -13 callsubr
          endchar
        </CharString>
        <CharString name="I">
          -2 callgsubr
          hstem
          35 209 -48 callgsubr
          endchar
        </CharString>
        <CharString name="J">
          26 -12 19 callgsubr
          hstem
          -2 458 -9 callsubr
          endchar
        </CharString>
        <CharString name="K">
          129 -3 callsubr
          hstem
          35 564 -40 callgsubr
          endchar
        </CharString>
        <CharString name="L">
          32 0 51 callgsubr
          35 367 -53 callsubr
          endchar
        </CharString>
        <CharString name="M">
          275 21 -21 69 97 397 93 hstem
          35 665 -82 callsubr
          endchar
        </CharString>
        <CharString name="N">
          -42 callsubr
          endchar
        </CharString>
        <CharString name="O">
          -25 callgsubr
          -97 callgsubr
          endchar
        </CharString>
        <CharString name="P">
          55 callsubr
          hstem
          480 -9 callgsubr
          endchar
        </CharString>
        <CharString name="Q">
          203 -162 65 86 64 548 67 hstem
          60 79 388 79 vstem
          291 53 rmoveto
          -105 -47 85 131 154 95 178 141 104 48 -85 -129 -156 -95 -178 -141 hvcurveto
          168 -215 rmoveto
          22 22 4 7 21 hvcurveto
          -5 61 rlineto
          -4 -18 -17 -3 -20 hhcurveto
          -70 -61 28 58 -23 hvcurveto
          176 16 120 196 193 vvcurveto
          12 callsubr
          -143 59 -101 111 -25 vhcurveto
          -107 33 85 -49 111 hhcurveto
          endchar
        </CharString>
        <CharString name="R">
          55 callgsubr
          hstem
          474 -87 callsubr
          endchar
        </CharString>
        <CharString name="S">
          39 callgsubr
          hstem
          120 79 180 80 vstem
          -98 callsubr
          endchar
        </CharString>
        <CharString name="T">
          42 callgsubr
          hstem
          93 472 -63 callsubr
          endchar
        </CharString>
        <CharString name="U">
          -40 callsubr
          -89 callsubr
          endchar
        </CharString>
        <CharString name="V">
          66 0 76 580 -20 hstem
          82 495 vstem
          141 hmoveto
          93 hlineto
          343 656 rlineto
          -84 hlineto
          -181 -364 -35 -70 -36 -76 -33 -70 rlinecurve
          -4 hlineto
          -4 72 -6 73 -6 71 -27 364 rcurveline
          -79 hlineto
          endchar
        </CharString>
        <CharString name="W">
          15 callgsubr
          -37 callgsubr
          hintmask 10101100
          95 hmoveto
          97 hlineto
          179 401 rlineto
          hintmask 11010100
          -84 callgsubr
          hintmask 10101100
          10 361 rlineto
          -80 hlineto
          endchar
        </CharString>
        <CharString name="X">
          64 -3 callsubr
          hstem
          -36 582 vstem
          -36 hmoveto
          83 hlineto
          128 180 22 33 25 38 26 35 rlinecurve
          3 hlineto
          10 -35 11 -34 10 -33 60 -184 rcurveline
          84 hlineto
          -117 334 237 322 rlineto
          -82 hlineto
          -120 -171 -20 -30 -23 -33 -23 -32 rlinecurve
          -3 hlineto
          -11 34 -7 28 -9 30 -56 174 rcurveline
          -84 hlineto
          108 -316 rlineto
          endchar
        </CharString>
        <CharString name="Y">
          43 callsubr
          hstem
          83 459 -82 callgsubr
          endchar
        </CharString>
        <CharString name="Z">
          -8 callgsubr
          endchar
        </CharString>
        <CharString name="a">
          -69 callsubr
          hstemhm
          39 79 hintmask 10101000
          -85 callgsubr
          hintmask 01011000
          -58 callgsubr
          hintmask 10101000
          -106 callgsubr
          endchar
        </CharString>
        <CharString name="a.a">
          -78 callgsubr
          endchar
        </CharString>
        <CharString name="ampersand">
          152 -12 61 565 54 hstem
          15 76 72 66 151 63 vstem
          229 480 rmoveto
          78 44 56 57 35 15 -26 -30 -71 -65 -44 -75 -45 vhcurveto
          -7 28 -4 28 26 vvcurveto
          -49 -492 rmoveto
          72 64 28 45 56 hvcurveto
          41 -35 42 -25 40 -13 32 62 rcurveline
          -31 11 -35 21 -36 29 64 69 50 84 41 88 rrcurveto
          -70 hlineto
          -35 -77 -39 -67 -54 -57 -50 53 -45 68 -28 70 rrcurveto
          91 57 93 60 102 vvcurveto
          61 -36 46 -72 -92 -80 -80 -112 -36 6 -38 12 -39 vhcurveto
          -86 -52 -80 -62 -108 vvcurveto
          -93 66 -60 99 vhcurveto
          -89 163 rmoveto
          65 49 46 62 42 vhcurveto
          30 -74 46 -71 52 -57 rrcurveto
          -33 -43 -47 -20 -46 hhcurveto
          -61 -42 41 61 hvcurveto
          endchar
        </CharString>
        <CharString name="asciicircum">
          49 594 76 hstem
          83 354 vstem
          83 283 rmoveto
          66 hlineto
          64 178 47 133 rlineto
          3 hlineto
          45 -133 65 -178 rlineto
          64 hlineto
          -146 387 rlineto
          -62 hlineto
          endchar
        </CharString>
        <CharString name="asciitilde">
          50 260 56 30 56 hstemhm
          45 406 vstemhm
          332 260 rmoveto
          41 45 27 62 33 hvcurveto
          -43 28 rlineto
          -43 -22 -23 -18 -29 hhcurveto
          hintmask 01100000
          25 callgsubr
          hintmask 11100000
          62 callgsubr
          endchar
        </CharString>
        <CharString name="asterisk">
          -27 422 291 hstem
          125 288 vstem
          176 434 rmoveto
          80 76 52 -88 40 23 -38 97 103 31 -7 43 -103 -14 8 107 -44 4 -25 -106 -99 33 -18 -40 88 -49 -69 -88 rlineto
          endchar
        </CharString>
        <CharString name="at">
          384 -155 52 150 53 -44 53 267 53 164 51 hstemhm
          45 57 142 61 172 47 198 55 hintmask 1101111110000000
          352 -155 rmoveto
          55 55 14 29 54 hvcurveto
          -23 46 rlineto
          -24 -39 -47 -13 -49 hhcurveto
          -140 -116 99 178 238 189 181 182 172 77 -110 -145 -153 -76 -85 -65 -53 -13 42 62 14 hvcurveto
          50 217 rlineto
          -51 hlineto
          -13 -43 rlineto
          -2 hlineto
          33 -17 -25 18 -31 hhcurveto
          -108 -88 -120 -118 61 callsubr
          -86 54 -49 61 44 40 29 38 31 58 callgsubr
          34 -29 47 hhcurveto
          108 102 106 195 171 -108 125 -189 -224 -211 -207 -274 -202 135 -116 172 61 callsubr
          21 264 rmoveto
          -39 -29 29 60 78 56 100 79 22 19 -11 -34 18 hvcurveto
          -36 -161 rlineto
          -42 -31 -30 -19 -29 hhcurveto
          endchar
        </CharString>
        <CharString name="b">
          106 29 callgsubr
          214 -20 hstemhm
          417 79 hintmask 10111000
          4 callgsubr
          hintmask 01111000
          -142 -712 rlineto
          63 hlineto
          hintmask 10111000
          -7 callsubr
          endchar
        </CharString>
        <CharString name="backslash">
          -90 -160 870 hstem
          88 169 vstem
          203 -160 rmoveto
          54 hlineto
          -117 870 rlineto
          -52 hlineto
          endchar
        </CharString>
        <CharString name="bar">
          -199 47 callsubr
          vstem
          95 -250 rmoveto
          52 1000 -52 hlineto
          endchar
        </CharString>
        <CharString name="braceleft">
          -140 54 callsubr
          47 63 -8 60 hintmask 11110000
          135 -152 rmoveto
          44 64 callgsubr
          -24 hlineto
          -43 -12 16 33 hvcurveto
          hintmask 11101000
          63 52 137 70 vvcurveto
          29 -12 21 -32 11 vhcurveto
          4 vlineto
          47 12 24 35 13 65 12 61 7 62 11 57 rrcurveto
          64 13 18 30 53 hhcurveto
          26 64 callgsubr
          -46 hlineto
          -80 -34 -31 -104 -20 hvcurveto
          -14 -68 -5 -59 -12 -64 rrcurveto
          -37 -8 -22 -42 -68 hhcurveto
          -11 -50 rlineto
          57 13 -28 -28 hvcurveto
          hintmask 11110000
          -58 -55 -137 -74 vvcurveto
          -56 26 -24 62 vhcurveto
          endchar
        </CharString>
        <CharString name="braceright">
          -137 54 callsubr
          137 61 -9 64 hintmask 11101000
          -52 -152 rmoveto
          46 hlineto
          hintmask 11110000
          78 35 30 103 21 hvcurveto
          14 69 5 60 12 64 rrcurveto
          37 7 22 42 69 hhcurveto
          11 50 rlineto
          -58 -12 28 26 hvcurveto
          hintmask 11101000
          59 55 138 74 vvcurveto
          54 -26 26 -63 vhcurveto
          -44 hlineto
          -10 -45 rlineto
          25 hlineto
          42 12 -16 -34 hvcurveto
          hintmask 11110000
          -63 -52 -137 -69 vvcurveto
          -29 11 -21 33 -11 vhcurveto
          -4 vlineto
          -47 -12 -23 -35 -14 -66 -11 -62 -8 -61 -11 -57 rrcurveto
          -65 -12 -19 -28 -53 hhcurveto
          -26 hlineto
          endchar
        </CharString>
        <CharString name="bracketleft">
          -138 38 callgsubr
          8 341 vstem
          8 -152 rmoveto
          169 62 callsubr
          -112 hlineto
          60 callsubr
          113 hlineto
          7 45 rlineto
          -169 hlineto
          endchar
        </CharString>
        <CharString name="bracketright">
          -138 38 callgsubr
          -49 343 vstem
          -49 -152 rmoveto
          171 hlineto
          172 860 66 callgsubr
          -8 -45 63 callsubr
          -155 -770 rlineto
          -111 hlineto
          endchar
        </CharString>
        <CharString name="c">
          42 callsubr
          hstem
          37 78 vstem
          -85 callsubr
          endchar
        </CharString>
        <CharString name="colon">
          -188 -12 120 249 120 hstemhm
          23 113 -49 113 hintmask 11010000
          134 357 rmoveto
          -72 callgsubr
          hintmask 11100000
          -64 -369 rmoveto
          -72 callgsubr
          endchar
        </CharString>
        <CharString name="comma">
          -188 -164 272 -112 112 hstemhm
          26 118 hintmask 10100000
          -20 -164 rmoveto
          hintmask 01100000
          9 callsubr
        </CharString>
        <CharString name="comma.dnom">
          -260 -114 198 -85 85 hstemhm
          0 91 -50 50 hintmask 10010000
          -24 -114 -55 callsubr
        </CharString>
        <CharString name="comma.numr">
          -260 152 198 -85 85 hstemhm
          50 91 -50 50 hintmask 10010000
          26 152 -55 callsubr
        </CharString>
        <CharString name="d">
          105 29 callgsubr
          214 -20 hstemhm
          39 79 hintmask 10111000
          -85 callgsubr
          hintmask 01111000
          -47 callgsubr
          hintmask 10111000
          -67 callsubr
          endchar
        </CharString>
        <CharString name="dollar">
          50 -110 162 -39 -21 598 161 hstemhm
          115 76 138 75 hintmask 10111000
          142 -110 rmoveto
          56 hlineto
          20 98 rlineto
          113 7 73 81 104 173 -213 13 122 vvcurveto
          60 46 42 64 46 40 -30 -39 27 vhcurveto
          50 45 -29 39 -42 31 -47 12 rlinecurve
          21 103 rlineto
          -56 hlineto
          -20 -98 rlineto
          -103 -6 -73 -71 -98 -153 214 -13 -144 vvcurveto
          -69 -52 -47 -73 -60 -48 38 40 -30 vhcurveto
          hintmask 01111000
          -49 -48 34 -41 52 -37 59 -12 rlinecurve
          endchar
        </CharString>
        <CharString name="e">
          51 -59 callsubr
          -93 callgsubr
          endchar
        </CharString>
        <CharString name="eight">
          -92 callgsubr
        </CharString>
        <CharString name="eight.dnom">
          -77 -12 44 325 45 hstemhm
          13 7 callsubr
          hintmask 11101000
          134 -12 -88 callsubr
        </CharString>
        <CharString name="eight.numr">
          -77 254 44 325 45 hstemhm
          63 7 callsubr
          hintmask 11101000
          184 254 -88 callsubr
        </CharString>
        <CharString name="equal">
          50 195 57 156 57 61 callgsubr
          48 408 rmoveto
          44 callsubr
          -270 vmoveto
          44 callsubr
          endchar
        </CharString>
        <CharString name="exclam">
          -148 -12 120 -99 -21 hstemhm
          43 113 hintmask 01100000
          102 196 0 callsubr
          -93 -683 rmoveto
          38 27 35 34 hvcurveto
          hintmask 10100000
          29 -16 22 -30 -38 -29 -36 -34 vhcurveto
          hintmask 01100000
          -29 19 -21 29 vhcurveto
          endchar
        </CharString>
        <CharString name="f">
          -148 21 36 callsubr
          hstem
          43 354 vstem
          -53 callgsubr
          endchar
        </CharString>
        <CharString name="f_f">
          119 21 -21 424 62 166 62 -52 62 hstemhm
          43 622 hintmask 11101000
          36 callgsubr
          hintmask 11011000
          -22 callgsubr
          hintmask 11101000
          -25 callsubr
          3 callsubr
          endchar
        </CharString>
        <CharString name="f_f_t">
          399 -12 62 374 2 callgsubr
          166 62 -52 62 hstemhm
          573 78 hintmask 10110100
          311 2 callsubr
          164 hlineto
          -57 -274 rlineto
          -4 -18 -2 -16 -20 vvcurveto
          -60 32 -48 84 39 31 12 10 22 vhcurveto
          -16 55 rlineto
          -7 -15 -17 -8 -20 hhcurveto
          -46 -16 20 40 13 2 11 2 12 hvcurveto
          57 278 rlineto
          124 hlineto
          13 62 rlineto
          -123 hlineto
          26 134 rlineto
          -64 hlineto
          -37 -134 rlineto
          -167 hlineto
          hintmask 10101100
          -22 callgsubr
          hintmask 11010100
          -29 callsubr
          hintmask 10110100
          3 callsubr
          endchar
        </CharString>
        <CharString name="f_t">
          131 -12 62 -29 36 callsubr
          hstemhm
          306 78 hintmask 01111000
          43 hmoveto
          76 hlineto
          86 424 rlineto
          163 hlineto
          -57 -274 rlineto
          -4 -18 -1 -16 -20 vvcurveto
          hintmask 10111000
          49 callsubr
          46 callsubr
          21 vhcurveto
          -16 55 rlineto
          -4 callsubr
          rlineto
          -167 hlineto
          17 83 rlineto
          57 11 -41 callsubr
          -65 -5 30 callsubr
          endchar
        </CharString>
        <CharString name="five">
          50 64 callsubr
          351 77 vstem
          188 -31 callsubr
        </CharString>
        <CharString name="five.dnom">
          -79 -12 33 callgsubr
          hstem
          226 60 vstem
          135 -12 -91 callsubr
          endchar
        </CharString>
        <CharString name="five.numr">
          -79 254 33 callgsubr
          hstem
          276 60 vstem
          185 254 -91 callsubr
          endchar
        </CharString>
        <CharString name="four">
          50 46 callgsubr
          15 446 hintmask 11011000
          331 -23 callsubr
        </CharString>
        <CharString name="four.dnom">
          -76 106 43 184 57 hstem
          9 295 vstem
          78 149 -71 callgsubr
          endchar
        </CharString>
        <CharString name="four.numr">
          -76 372 43 184 57 hstem
          59 295 vstem
          128 415 -71 callgsubr
          endchar
        </CharString>
        <CharString name="g">
          24 callgsubr
          hstemhm
          39 79 hintmask 11101000
          -57 callsubr
          hintmask 11011000
          12 callgsubr
          hintmask 11101000
          -99 callgsubr
          endchar
        </CharString>
        <CharString name="grave">
          87 59 callgsubr
          233 180 vstem
          365 570 -61 callsubr
        </CharString>
        <CharString name="greater">
          50 135 391 hstem
          376 84 vstem
          48 135 rmoveto
          412 166 rlineto
          58 vlineto
          -412 167 rlineto
          -65 vlineto
          204 -80 124 -48 rlineto
          -4 vlineto
          -124 -49 -204 -79 rlineto
          endchar
        </CharString>
        <CharString name="h">
          93 21 -21 432 66 214 -20 hstem
          394 78 vstem
          -98 callgsubr
          -59 -53 -35 -47 -55 vhcurveto
          -4 hlineto
          16 61 48 235 -49 callgsubr
          endchar
        </CharString>
        <CharString name="hyphen">
          -131 222 59 hstem
          35 231 vstem
          35 222 rmoveto
          218 hlineto
          13 59 rlineto
          -219 hlineto
          endchar
        </CharString>
        <CharString name="i">
          22 callgsubr
          121 103 hstem
          143 8 callgsubr
          endchar
        </CharString>
        <CharString name="j">
          52 callsubr
          121 103 hstemhm
          140 107 hintmask 10111000
          -24 callsubr
          hintmask 01111000
          -25 -57 rlineto
          hintmask 10111000
          -5 callsubr
          238 804 -103 callsubr
        </CharString>
        <CharString name="k">
          46 35 callgsubr
          246 -20 hstem
          31 462 vstem
          -61 callgsubr
          96 483 -49 callgsubr
          endchar
        </CharString>
        <CharString name="l">
          -35 callgsubr
          endchar
        </CharString>
        <CharString name="less">
          50 135 391 hstem
          46 84 vstem
          458 135 rmoveto
          66 vlineto
          -203 79 -125 49 rlineto
          4 vlineto
          125 48 203 80 63 callgsubr
          -167 rlineto
          -58 vlineto
          endchar
        </CharString>
        <CharString name="m">
          369 11 callgsubr
          hstemhm
          383 76 209 78 hintmask 11011000
          -78 callsubr
          hintmask 10111000
          7 callgsubr
          endchar
        </CharString>
        <CharString name="n">
          95 11 callgsubr
          hstemhm
          394 78 hintmask 11010000
          -86 callgsubr
          hintmask 10110000
          7 callgsubr
          endchar
        </CharString>
        <CharString name="nine">
          -52 callgsubr
        </CharString>
        <CharString name="nine.dnom">
          -77 -12 25 callsubr
          hstem
          40 56 151 57 vstem
          96 259 -86 callsubr
        </CharString>
        <CharString name="nine.numr">
          -77 254 25 callsubr
          hstem
          90 56 151 57 vstem
          146 525 -86 callsubr
        </CharString>
        <CharString name="numbersign">
          49 21 -21 205 55 150 55 185 -20 hstem
          24 467 vstem
          38 hmoveto
          52 hlineto
          64 205 rlineto
          126 hlineto
          -65 -205 rlineto
          52 hlineto
          64 205 rlineto
          85 hlineto
          14 55 rlineto
          -81 hlineto
          46 150 rlineto
          82 hlineto
          14 55 rlineto
          -79 68 callgsubr
          -125 68 callgsubr
          -84 hlineto
          -14 -55 rlineto
          80 hlineto
          -46 -150 rlineto
          -82 hlineto
          -13 -55 rlineto
          79 hlineto
          68 55 rmoveto
          46 150 rlineto
          127 hlineto
          -46 -150 rlineto
          endchar
        </CharString>
        <CharString name="o">
          -62 callgsubr
          endchar
        </CharString>
        <CharString name="one">
          50 0 64 478 50 -50 96 10 callgsubr
          116 574 21 callsubr
          -57 49 callgsubr
          -50 rlineto
          113 hlineto
          -96 -478 59 callsubr
        </CharString>
        <CharString name="one.dnom">
          -74 312 40 callgsubr
          92 65 callgsubr
          120 hmoveto
          -28 callsubr
          hintmask 10100000
          -26 callsubr
          hintmask 01100000
          10 callsubr
          endchar
        </CharString>
        <CharString name="one.numr">
          -74 578 40 callgsubr
          142 65 callgsubr
          170 266 -14 callsubr
        </CharString>
        <CharString name="p">
          105 -184 -21 193 64 382 64 -12 -20 hstemhm
          417 79 hintmask 11101000
          -4 callgsubr
          hintmask 11011000
          33 callsubr
          hintmask 11101000
          46 232 rlineto
          50 6 callgsubr
          hvcurveto
          hintmask 11011000
          -135 -89 -124 -97 vhcurveto
          endchar
        </CharString>
        <CharString name="parenleft">
          -139 -176 907 hstem
          65 64 vstem
          122 -176 rmoveto
          50 19 rlineto
          -29 76 -14 113 93 vvcurveto
          210 73 192 141 179 vhcurveto
          -45 25 rlineto
          -148 -187 -85 -178 -233 vvcurveto
          -110 25 -114 32 -85 vhcurveto
          endchar
        </CharString>
        <CharString name="parenleft.dnom">
          -203 -79 70 callgsubr
          39 57 vstem
          81 -79 -54 callsubr
        </CharString>
        <CharString name="parenleft.numr">
          -203 187 70 callgsubr
          89 57 vstem
          131 187 -54 callsubr
        </CharString>
        <CharString name="parenright">
          -137 -176 907 hstem
          169 65 vstem
          1 -176 rmoveto
          147 187 86 178 234 vvcurveto
          109 -25 114 -32 85 vhcurveto
          -50 -19 rlineto
          29 -76 13 -112 -94 vvcurveto
          -209 -72 -193 -141 -178 vhcurveto
          endchar
        </CharString>
        <CharString name="parenright.dnom">
          -204 -79 70 callgsubr
          107 57 vstem
          15 -79 -22 callsubr
        </CharString>
        <CharString name="parenright.numr">
          -204 187 70 callgsubr
          157 57 vstem
          65 187 -22 callsubr
        </CharString>
        <CharString name="percent">
          361 54 callgsubr
          hstem
          61 41 callsubr
          81 41 callsubr
          vstem
          184 258 -94 callsubr
          -54 -320 -77 callsubr
          -49 -684 -94 callsubr
          endchar
        </CharString>
        <CharString name="period">
          -188 -12 120 hstem
          23 113 vstem
          70 -12 rmoveto
          -72 callgsubr
          endchar
        </CharString>
        <CharString name="period.dnom">
          -260 -8 92 hstem
          -3 89 vstem
          34 -8 -12 callgsubr
        </CharString>
        <CharString name="period.numr">
          -260 258 92 hstem
          47 89 vstem
          84 258 -12 callgsubr
        </CharString>
        <CharString name="plus">
          50 302 57 hstemhm
          222 60 -59 60 hintmask 11000000
          222 103 rmoveto
          60 199 176 57 hlineto
          hintmask 10100000
          -175 195 -60 -195 -175 -57 hlineto
          hintmask 11000000
          174 hlineto
          endchar
        </CharString>
        <CharString name="q">
          107 -184 -21 193 64 382 64 -12 -20 hstemhm
          39 79 hintmask 11101000
          289 -205 rmoveto
          77 hlineto
          hintmask 11011000
          138 691 rlineto
          -62 hlineto
          hintmask 11101000
          20 callgsubr
          61 61 34 51 49 hvcurveto
          2 hlineto
          -30 -119 rlineto
          -115 98 -16 callsubr
          endchar
        </CharString>
        <CharString name="question">
          -21 -12 120 -99 -21 630 64 hstemhm
          94 48 callsubr
          hintmask 01111000
          145 201 -76 callgsubr
          hvcurveto
          hintmask 10111000
          -51 callgsubr
          vhcurveto
          hintmask 01111000
          -29 18 -21 29 vhcurveto
          endchar
        </CharString>
        <CharString name="quotedbl">
          -23 426 245 hstem
          128 278 vstem
          128 426 17 callsubr
          142 -153 17 callsubr
          endchar
        </CharString>
        <CharString name="quotesingle">
          -188 426 245 hstem
          128 113 vstem
          128 426 17 callsubr
          endchar
        </CharString>
        <CharString name="r">
          -88 21 4 callsubr
          hstemhm
          31 349 hintmask 11001000
          -59 callgsubr
          hintmask 10011000
          27 68 rlineto
          hintmask 11001000
          -45 callgsubr
          hintmask 10101000
          28 callsubr
          endchar
        </CharString>
        <CharString name="s">
          37 callsubr
          hstem
          72 73 127 73 vstem
          -91 callgsubr
          endchar
        </CharString>
        <CharString name="semicolon">
          -188 -4 112 249 120 hstemhm
          26 118 -57 113 hintmask 11010000
          134 357 rmoveto
          -72 callgsubr
          -154 -521 rmoveto
          hintmask 11100000
          9 callsubr
        </CharString>
        <CharString name="seven">
          65 callsubr
          572 66 hstem
          105 58 callsubr
          46 218 62 184 199 60 callgsubr
          -398 hlineto
          -14 -66 rlineto
          310 hlineto
          -163 -161 -75 -172 -57 -239 rrcurveto
          endchar
        </CharString>
        <CharString name="seven.dnom">
          -77 339 51 hstem
          66 271 vstem
          72 hmoveto
          -72 callsubr
          endchar
        </CharString>
        <CharString name="seven.numr">
          -77 605 51 hstem
          116 271 vstem
          122 266 rmoveto
          -72 callsubr
          endchar
        </CharString>
        <CharString name="six">
          -87 callgsubr
        </CharString>
        <CharString name="six.dnom">
          -77 -12 31 callgsubr
          hstem
          24 58 150 56 vstem
          82 143 -90 callgsubr
        </CharString>
        <CharString name="six.numr">
          -77 254 31 callgsubr
          hstem
          74 58 150 56 vstem
          132 409 -90 callgsubr
        </CharString>
        <CharString name="slash">
          -90 -160 870 hstem
          -72 490 vstem
          -72 -160 rmoveto
          55 hlineto
          435 870 rlineto
          -56 hlineto
          endchar
        </CharString>
        <CharString name="slash.frac">
          -12 callsubr
        </CharString>
        <CharString name="space">
          -230 endchar
        </CharString>
        <CharString name="space.frac">
          -296 endchar
        </CharString>
        <CharString name="t">
          -105 -12 62 374 62 hstem
          69 78 vstem
          -94 callgsubr
          endchar
        </CharString>
        <CharString name="three">
          50 69 callgsubr
          343 77 -41 78 hintmask 11110000
          187 -41 callgsubr
        </CharString>
        <CharString name="three.dnom">
          -79 -12 27 callsubr
          hstemhm
          216 59 -37 60 hintmask 11110000
          134 -12 -84 callsubr
        </CharString>
        <CharString name="three.numr">
          -79 254 27 callsubr
          hstemhm
          266 59 -37 60 hintmask 11110000
          184 254 -84 callsubr
        </CharString>
        <CharString name="two">
          50 0 66 521 63 hstem
          377 75 vstem
          -10 hmoveto
          395 hlineto
          12 23 callgsubr
          220 191 111 95 141 vvcurveto
          91 -61 66 -109 -64 -57 -29 -50 14 callgsubr
          70 34 -46 -58 -124 -124 -97 -255 -216 hvcurveto
          endchar
        </CharString>
        <CharString name="two.dnom">
          -77 0 51 299 52 hstem
          239 61 vstem
          1 hmoveto
          -83 callgsubr
          endchar
        </CharString>
        <CharString name="two.numr">
          -77 266 51 299 52 hstem
          289 61 vstem
          51 266 rmoveto
          -83 callgsubr
          endchar
        </CharString>
        <CharString name="u">
          -13 callgsubr
          hstemhm
          56 78 hintmask 10110000
          -74 callgsubr
          hintmask 01110000
          3 callgsubr
          hintmask 10110000
          -104 callgsubr
          vhcurveto
          endchar
        </CharString>
        <CharString name="underscore">
          53 -124 50 hstem
          -36 468 vstem
          -36 -124 67 callgsubr
        </CharString>
        <CharString name="v">
          18 0 60 426 -20 hstem
          59 422 vstem
          130 hmoveto
          92 hlineto
          259 486 -49 callgsubr
          -143 -281 -25 -48 -24 -49 -23 -48 rlinecurve
          -4 hlineto
          -5 47 -4 51 -5 47 -36 281 rcurveline
          -76 hlineto
          endchar
        </CharString>
        <CharString name="w">
          26 callsubr
          hstemhm
          378 -1 callsubr
          hintmask 11100000
          -70 callsubr
          hintmask 11010000
          -37 callsubr
          hintmask 11100000
          -60 callsubr
          endchar
        </CharString>
        <CharString name="x">
          -1 35 callgsubr
          hstem
          -44 510 vstem
          -44 hmoveto
          84 hlineto
          94 115 25 31 23 28 21 30 rlinecurve
          4 hlineto
          13 -30 11 -31 11 -29 44 -114 rcurveline
          79 hlineto
          -99 241 200 245 rlineto
          -83 hlineto
          -85 -108 -20 -28 -22 -27 -20 -27 rlinecurve
          -4 hlineto
          -10 28 -8 24 -11 30 -42 108 rcurveline
          -78 hlineto
          91 -228 rlineto
          endchar
        </CharString>
        <CharString name="y">
          -44 callsubr
          endchar
        </CharString>
        <CharString name="z">
          -20 0 56 callgsubr
          hstem
          -10 440 vstem
          -64 callgsubr
          endchar
        </CharString>
        <CharString name="zero">
          50 29 callsubr
          277 71 -21 callsubr
          4 61 rmoveto
          -62 -28 65 88 180 84 206 103 61 29 -65 -89 -181 -84 -204 -103 hvcurveto
          endchar
        </CharString>
        <CharString name="zero.dnom">
          -73 -12 50 314 50 hstem
          15 41 callsubr
          vstem
          138 -12 -94 callsubr
          endchar
        </CharString>
        <CharString name="zero.numr">
          -73 254 50 314 50 hstem
          65 41 callsubr
          vstem
          188 254 -94 callsubr
          endchar
        </CharString>
      <CharString index="0">
        153 -12 rmoveto
        -27 callsubr
        hvcurveto
        -10 callsubr
        39 callsubr
        32 61 -95 callgsubr
        return
      </CharString>
      <CharString index="1">
        -19 -61 rlineto
        -4 hlineto
        44 -23 -42 29 -102 callsubr
        -48 -54 -30 -51 hhcurveto
        return
      </CharString>
      <CharString index="2">
        286 -12 rmoveto
        117 92 74 189 37 hvcurveto
        82 405 rlineto
        41 callgsubr
        -92 -41 53 94 24 3 25 6 30 hvcurveto
        75 375 17 callgsubr
        -368 rlineto
        -6 -33 -4 -32 -28 vvcurveto
        -136 74 -71 133 vhcurveto
        return
      </CharString>
      <CharString index="3">
        -69 -344 rlineto
        -61 -59 -47 -27 -38 -101 callsubr
        return
      </CharString>
      <CharString index="4">
        57 286 rlineto
        5 21 3 26 20 vvcurveto
        103 -56 42 -94 -59 -64 -22 -28 -51 vhcurveto
        25 -56 rlineto
        27 47 44 17 44 hhcurveto
        59 29 -24 -66 -14 -1 -12 -5 -19 hvcurveto
        return
      </CharString>
      <CharString index="5">
        -100 callgsubr
        -25 -33 -29 23 -16 26 hvcurveto
        return
      </CharString>
      <CharString index="6">
        -51 hhcurveto
        -131 -126 -144 -178 -113 59 -58 82 62 56 31 51 51 hvcurveto
        -25 -104 rlineto
        -85 -19 -49 -55 -82 hhcurveto
        -54 -46 26 31 -37 hvcurveto
        -36 -53 rlineto
        -39 47 58 -28 65 hhcurveto
        34 289 rmoveto
        -54 -33 39 79 127 87 120 94 37 32 -21 -51 30 hvcurveto
        -43 -208 rlineto
        -56 -46 -58 -29 -46 hhcurveto
        return
      </CharString>
      <CharString index="7">
        rmoveto
        31 27 24 33 29 -23 17 -26 -31 -27 return
      </CharString>
      <CharString index="8">
        -19 -61 rlineto
        -3 hlineto
        44 -23 -43 29 -101 callgsubr
        return
      </CharString>
      <CharString index="9">
        31 hmoveto
        76 hlineto
        -33 callsubr
        -45 callsubr
        -3 callgsubr
        62 310 -75 callsubr
        return
      </CharString>
      <CharString index="10">
        hstem
        60 79 388 79 vstem
        -106 callsubr
        return
      </CharString>
      <CharString index="11">
        8 64 -96 callsubr
        return
      </CharString>
      <CharString index="12">
        rmoveto
        -45 -33 23 50 81 88 43 151 4 hvcurveto
        -27 -135 rlineto
        -43 -49 -44 -23 -41 hhcurveto
        return
      </CharString>
      <CharString index="13">
        185 -12 rmoveto
        38 32 12 10 22 hvcurveto
        -17 55 rlineto
        -4 callsubr
        -76 -5 22 callsubr
        -57 -274 rlineto
        -2 -18 -3 -16 -20 vvcurveto
        49 callsubr
        vhcurveto
        return
      </CharString>
      <CharString index="14">
        hstem
        37 74 271 65 vstem
        -107 callsubr
        return
      </CharString>
      <CharString index="15">
        50 -12 57 547 58 hstemhm
        33 70 22 69 172 71 -31 34 callsubr
        115 100 71 115 68 -49 50 -39 26 hvcurveto
        4 vlineto
        hintmask 11110100
        73 41 52 55 85 vvcurveto
        99 -78 48 -82 -101 -88 -65 -109 -52 21 -37 37 -37 vhcurveto
        -4 vlineto
        hintmask 11101000
        -78 -34 -72 -62 -97 vvcurveto
        -112 96 -53 93 vhcurveto
        hintmask 11110100
        87 357 rmoveto
        -71 35 -44 33 67 vvcurveto
        70 55 42 59 56 42 -36 -63 -67 -48 -49 -49 -32 vhcurveto
        hintmask 11101000
        -83 -300 rmoveto
        -67 -56 43 73 74 49 47 67 38 hvcurveto
        78 -42 69 -34 -74 vvcurveto
        -80 -69 -45 -71 vhcurveto
        endchar
      </CharString>
      <CharString index="16">
        163 -12 rmoveto
        -92 callsubr
        -51 -44 29 42 -30 vhcurveto
        -48 -38 rlineto
        -54 33 69 -38 65 hhcurveto
        return
      </CharString>
      <CharString index="17">
        rmoveto
        7 vlineto
        33 26 34 15 27 hhcurveto
        39 24 -26 -41 -56 -37 -38 -39 -39 -35 30 76 hvcurveto
        69 -155 rmoveto
        69 68 57 91 61 -40 45 -66 -38 -36 -20 -24 -22 hvcurveto
        101 15 56 54 62 hhcurveto
        29 21 -9 -18 19 hvcurveto
        34 38 rlineto
        25 -25 -33 13 -40 hhcurveto
        -103 -97 -92 -170 -93 56 -59 71 hvcurveto
        endchar
      </CharString>
      <CharString index="18">
        vstem
        -93 callsubr
        return
      </CharString>
      <CharString index="19">
        58 18 33 42 49 vvcurveto
        59 -45 36 -65 -44 -38 -12 -28 -39 vhcurveto
        27 -41 rlineto
        22 28 27 11 28 hhcurveto
        38 23 -22 -33 -37 -30 -41 -90 hvcurveto
        -9 -41 rlineto
        return
      </CharString>
      <CharString index="20">
        50 -12 60 281 57 200 64 hstem
        51 72 242 72 vstem
        123 202 rmoveto
        16 0 15 1 15 vhcurveto
        62 48 59 19 33 hhcurveto
        66 35 -47 -73 -81 -58 -80 -75 -67 -42 62 92 hvcurveto
        105 -214 rmoveto
        118 91 107 125 104 -61 62 -95 -44 -62 -24 -50 -44 hvcurveto
        167 27 87 107 100 hhcurveto
        42 30 -20 -38 22 hvcurveto
        52 41 rlineto
        43 -27 -44 38 -71 hhcurveto
        -171 -127 -186 -260 -126 68 -90 109 hvcurveto
        endchar
      </CharString>
      <CharString index="21">
        -98 callgsubr
        -61 -54 -37 -48 -54 vhcurveto
        -4 hlineto
        return
      </CharString>
      <CharString index="22">
        6 callsubr
        61 61 34 50 5 callsubr
        return
      </CharString>
      <CharString index="23">
        22 52 23 50 19 52 rrcurveto
        4 hlineto
        -2 -52 -1 -54 -48 vvcurveto
        7 -401 rlineto
        99 hlineto
        270 50 callgsubr
        -142 -361 -27 -70 -29 -71 -27 -72 rlinecurve
        -4 hlineto
        72 0 72 -1 69 vhcurveto
        -9 361 rlineto
        -71 hlineto
        -164 -361 -29 -70 -33 -72 -31 -71 rlinecurve
        -4 hlineto
        5 71 1 72 4 70 rrcurveto
        return
      </CharString>
      <CharString index="24">
        257 hlineto
        10 51 rlineto
        -163 hlineto
        129 97 66 66 83 vvcurveto
        65 -45 40 -71 -50 -38 -27 -36 -37 vhcurveto
        35 -36 rlineto
        27 25 28 20 28 hhcurveto
        43 21 -24 -38 -72 -68 -63 -163 -115 hvcurveto
        return
      </CharString>
      <CharString index="25">
        vstem
        -90 callsubr
        return
      </CharString>
      <CharString index="26">
        vstem
        -99 callsubr
        return
      </CharString>
      <CharString index="27">
        13 66 10 73 8 68 rrcurveto
        4 hlineto
        43 -141 148 -419 rlineto
        77 -8 callsubr
        -75 hlineto
        -69 -348 rlineto
        return
      </CharString>
      <CharString index="28">
        78 hlineto
        55 278 38 callsubr
        108 -278 rlineto
        83 hlineto
        -115 285 rlineto
        111 22 82 75 121 vvcurveto
        110 -83 43 -122 vhcurveto
        -180 hlineto
        return
      </CharString>
      <CharString index="29">
        -64 callsubr
        -81 callsubr
        return
      </CharString>
      <CharString index="30">
        -35 50 rlineto
        -36 -43 -43 -23 -53 hhcurveto
        -118 -49 86 119 159 99 182 156 50 35 -29 -42 26 hvcurveto
        54 41 rlineto
        56 -32 -54 41 -75 hhcurveto
        -203 -136 -209 -206 return
      </CharString>
      <CharString index="31">
        rmoveto
        66 -6 rlineto
        13 152 194 35 162 vvcurveto
        86 -59 52 -93 -60 -56 -29 -40 -39 vhcurveto
        41 -46 rlineto
        31 29 38 20 38 hhcurveto
        53 33 -32 -55 -123 -188 -38 -10 -169 hvcurveto
        -4 37 callgsubr
        return
      </CharString>
      <CharString index="32">
        -50 callgsubr
        134 90 124 -52 callsubr
        28 hvcurveto
        -30 callsubr
        -63 return
      </CharString>
      <CharString index="33">
        171 -65 callgsubr
        return
      </CharString>
      <CharString index="34">
        79 vstem
        35 hmoveto
        176 hlineto
        222 133 162 238 161 -96 95 -182 hvcurveto
        -122 hlineto
        -41 -592 rmoveto
        106 529 rlineto
        54 hlineto
        132 70 -74 -124 -195 -106 -136 -170 hvcurveto
        return
      </CharString>
      <CharString index="35">
        38 28 -67 callgsubr
        return
      </CharString>
      <CharString index="36">
        rmoveto
        86 100 67 84 rlineto
        4 hlineto
        -26 -108 -15 -76 rlineto
        -30 -149 rmoveto
        54 hlineto
        21 106 rlineto
        56 hlineto
        9 43 rlineto
        -57 hlineto
        48 241 rlineto
        -65 hlineto
        -214 -251 -7 -33 rlineto
        176 hlineto
        return
      </CharString>
      <CharString index="37">
        43 2 callsubr
        99 23 callsubr
        -98 -20 callsubr
        55 rlineto
        14 -24 -27 10 -35 hhcurveto
        -82 -52 -59 -98 -20 hvcurveto
        return
      </CharString>
      <CharString index="38">
        -52 -188 rmoveto
        -38 -31 26 41 33 26 32 46 22 hvcurveto
        43 -21 37 -15 -46 vvcurveto
        -44 -39 -28 -44 vhcurveto
        endchar
      </CharString>
      <CharString index="39">
        -26 -49 -17 -3 -14 -5 -26 hvcurveto
        return
      </CharString>
      <CharString index="40">
        35 34 -51 callgsubr
        -29 18 -21 29 hvcurveto
        return
      </CharString>
      <CharString index="41">
        57 232 rmoveto
        -38 14 -29 24 37 vvcurveto
        36 30 26 39 33 25 -22 -37 -28 -22 -28 -38 -22 vhcurveto
        return
      </CharString>
      <CharString index="42">
        -12 rmoveto
        -23 callgsubr
        -27 callgsubr
        return
      </CharString>
      <CharString index="43">
        -10 hmoveto
        351 hlineto
        12 62 -38 callsubr
        323 379 8 45 rlineto
        -317 53 callgsubr
        221 hlineto
        -323 -380 rlineto
        return
      </CharString>
      <CharString index="44">
        37 20 39 37 51 vvcurveto
        58 -45 39 -63 -70 -58 -45 -65 -31 18 -25 22 -20 vhcurveto
        -1 -4 rlineto
        return
      </CharString>
      <CharString index="45">
        -1 callgsubr
        -16 callgsubr
        return
      </CharString>
      <CharString index="46">
        31 hmoveto
        76 hlineto
        26 123 112 114 93 -237 rlineto
        78 hlineto
        -117 283 194 203 rlineto
        -88 hlineto
        -249 -257 rlineto
        -2 hlineto
        return
      </CharString>
      <CharString index="47">
        hlineto
        97 486 rlineto
        return
      </CharString>
      <CharString index="48">
        31 hmoveto
        76 hlineto
        61 307 rlineto
        79 41 54 43 48 hhcurveto
        18 14 -3 -5 10 hvcurveto
        return
      </CharString>
      <CharString index="49">
        -8 -72 -83 callsubr
        -62 hlineto
        return
      </CharString>
      <CharString index="50">
        64 -31 -21 434 64 -12 -20 return
      </CharString>
      <CharString index="51">
        -27 25 35 -19 hvcurveto
        -41 -29 rlineto
        return
      </CharString>
      <CharString index="52">
        -51 callsubr
        vhcurveto
        28 64 -75 callgsubr
        return
      </CharString>
      <CharString index="53">
        hhcurveto
        -215 -134 -207 -208 -160 85 -105 158 hvcurveto
        return
      </CharString>
      <CharString index="54">
        -70 callgsubr
        -16 -81 -65 -5 30 callsubr
        return
      </CharString>
      <CharString index="55">
        50 -12 64 200 57 281 60 hstem
        70 71 242 72 vstem
        141 429 rmoveto
        80 59 81 74 67 42 -62 -92 -16 0 -15 -1 -15 vhcurveto
        -63 -47 -60 -18 -32 hhcurveto
        -67 -35 46 74 hvcurveto
        16 -441 rmoveto
        171 127 186 260 126 -67 90 -110 -118 -90 -107 -125 -104 61 -62 94 44 61 23 49 44 hvcurveto
        -165 -27 -86 -107 -99 hhcurveto
        -43 -30 20 38 -21 hvcurveto
        -52 -41 rlineto
        -44 26 45 -37 70 hhcurveto
        endchar
      </CharString>
      <CharString index="56">
        29 -17 22 -29 -38 -29 -36 -34 return
      </CharString>
      <CharString index="57">
        rmoveto
        -54 -35 40 84 return
      </CharString>
      <CharString index="58">
        rlineto
        -77 hlineto
        return
      </CharString>
      <CharString index="59">
        vstem
        35 hmoveto
        78 hlineto
        -19 callgsubr
        return
      </CharString>
      <CharString index="60">
        -8 -72 rlineto
        63 hlineto
        144 32 callgsubr
        -38 -190 -16 -95 rlineto
        -3 hlineto
        43 -24 -39 28 -52 hhcurveto
        -80 callsubr
        hvcurveto
        return
      </CharString>
      <CharString index="61">
        -34 callsubr
        hstem
        35 493 -89 callgsubr
        return
      </CharString>
      <CharString index="62">
        6 -14 -14 3 -18 hhcurveto
        -60 -51 -46 -59 -39 hvcurveto
        -4 hlineto
        return
      </CharString>
      <CharString index="63">
        17 3 14 5 26 return
      </CharString>
      <CharString index="64">
        hlineto
        117 589 -58 callsubr
        return
      </CharString>
      <CharString index="65">
        -56 callgsubr
        -43 23 46 -37 return
      </CharString>
      <CharString index="66">
        -12 rmoveto
        134 99 77 122 66 -42 50 -70 23 hvcurveto
        4 vlineto
        hintmask 11101000
        99 28 50 65 81 vvcurveto
        88 -60 58 -107 -61 -61 -22 -41 -54 vhcurveto
        39 -51 rlineto
        31 38 48 20 39 hhcurveto
        68 33 -40 -56 -61 -51 -71 -158 hvcurveto
        -12 -58 rlineto
        hintmask 11110000
        135 50 -49 -68 -76 -64 -56 -91 -66 -49 41 45 -31 hvcurveto
        -51 -40 rlineto
        -60 40 69 -50 87 hhcurveto
        endchar
      </CharString>
      <CharString index="67">
        16 callgsubr
        45 220 137 134 126 -354 rlineto
        81 hlineto
        -149 404 246 252 rlineto
        -88 hlineto
        -329 -324 rlineto
        -3 hlineto
        65 324 -20 callgsubr
        return
      </CharString>
      <CharString index="68">
        27 36 44 hhcurveto
        23 17 -8 -9 14 hvcurveto
        27 return
      </CharString>
      <CharString index="69">
        31 hmoveto
        -11 callsubr
        return
      </CharString>
      <CharString index="70">
        hstemhm
        99.5 64.5 -64.5 79.5 257 64.5 return
      </CharString>
      <CharString index="71">
        -12 64 383 63 return
      </CharString>
      <CharString index="72">
        -182 -12 64 -43 -21 724 -20 hstemhm
        44 -15 callsubr
        hintmask 01101000
        -14 callgsubr
        hintmask 10101000
        -1 59 rlineto
        hintmask 10110000
        -66 callsubr
        hintmask 01101000
        -65 callsubr
        return
      </CharString>
      <CharString index="73">
        203 -12 67 546 return
      </CharString>
      <CharString index="74">
        -12 -28 callgsubr
        return
      </CharString>
      <CharString index="75">
        hlineto
        14 66 rlineto
        return
      </CharString>
      <CharString index="76">
        -20 hstem
        -62 545 vstem
        -97 callsubr
        return
      </CharString>
      <CharString index="77">
        48 callgsubr
        hstem
        57 80 -17 callgsubr
        return
      </CharString>
      <CharString index="78">
        rmoveto
        76 65 45 77 34 -23 38 -45 16 hvcurveto
        return
      </CharString>
      <CharString index="79">
        66 -33 -36 callsubr
        return
      </CharString>
      <CharString index="80">
        hvcurveto
        4 hlineto
        return
      </CharString>
      <CharString index="81">
        rmoveto
        -28 callsubr
        return
      </CharString>
      <CharString index="82">
        -34 callgsubr
        67 return
      </CharString>
      <CharString index="83">
        3 hlineto
        -4 -57 rlineto
        return
      </CharString>
      <CharString index="84">
        59 56 39 47 53 return
      </CharString>
      <CharString index="85">
        17 83 rlineto
        57 12 -41 callsubr
        rlineto
        -192 hlineto
        return
      </CharString>
      <CharString index="86">
        98 486 -49 callgsubr
        return
      </CharString>
      <CharString index="87">
        rlineto
        -78 hlineto
        return
      </CharString>
      <CharString index="88">
        -49 callsubr
        -78 hlineto
        return
      </CharString>
      <CharString index="89">
        rmoveto
        29 23 23 31 22 -16 16 -21 -29 -23 -24 -30 -23 14 -15 23 hvcurveto
        return
      </CharString>
      <CharString index="90">
        vstem
        290 -12 rmoveto
        79 61 34 42 48 hvcurveto
        -77 callgsubr
        -157 83 -108 150 hvcurveto
        return
      </CharString>
      <CharString index="91">
        hstem
        39 77 281 78 vstem
        -104 callsubr
        return
      </CharString>
      <CharString index="92">
        vstem
        -38 callgsubr
        return
      </CharString>
      <CharString index="93">
        109 -12 rmoveto
        21 14 3 5 13 hvcurveto
        return
      </CharString>
      <CharString index="94">
        98 -33 callgsubr
        return
      </CharString>
      <CharString index="95">
        -18 callgsubr
        endchar
      </CharString>
      <CharString index="96">
        101 -102 callgsubr
        return
      </CharString>
      <CharString index="97">
        66 246 24 callsubr
        return
      </CharString>
      <CharString index="98">
        77 16 callgsubr
        52 264 rlineto
        105 hlineto
        167 120 71 161 114 -83 46 -123 hvcurveto
        -185 hlineto
        12 -329 rmoveto
        53 267 rlineto
        101 hlineto
        96 52 -32 -76 -105 -72 -54 -135 hvcurveto
        return
      </CharString>
      <CharString index="99">
        82 20 callsubr
        hstem
        -1 542 -74 callsubr
        return
      </CharString>
      <CharString index="100">
        rlineto
        -58 -13 -21 -34 -37 hhcurveto
        -21 -12 51 callsubr
        return
      </CharString>
      <CharString index="101">
        35 hmoveto
        75 hlineto
        70 353 rlineto
        return
      </CharString>
      <CharString index="102">
        hstem
        35 582 -56 callsubr
        return
      </CharString>
      <CharString index="103">
        -10 -205 rmoveto
        76 hlineto
        31 159 18 104 rlineto
        2 hlineto
        -41 25 41 32 callsubr
        -61 -58 -35 -41 -49 hvcurveto
        -3 hlineto
        return
      </CharString>
      <CharString index="104">
        22 -68 callgsubr
        -60 -300 rlineto
        76 hlineto
        return
      </CharString>
      <CharString index="105">
        -178 -3 callsubr
        return
      </CharString>
      <CharString index="106">
        85 -36 callgsubr
        return
      </CharString>
      <CharString index="107">
        99 -78 -21 560 96 0 -20 return
      </CharString>
      <CharString index="108">
        189 0 0 callgsubr
        return
      </CharString>
      <CharString index="109">
        59.5 -59.5 62 return
      </CharString>
      <CharString index="110">
        -8 -74 -18 callsubr
        return
      </CharString>
      <CharString index="111">
        234 -12 rmoveto
        11 callsubr
        114 -55 62 45 callgsubr
        39 190 -49 callgsubr
        return
      </CharString>
      <CharString index="112">
        rlineto
        49 6 callgsubr
        -135 -89 -124 -97 hvcurveto
        return
      </CharString>
      <CharString index="113">
        46 59 30 45 hhcurveto
        55 34 -41 -82 return
      </CharString>
      <CharString index="114">
        7 73 rlineto
        -63 hlineto
        return
      </CharString>
      <CharString index="115">
        107 -15 callgsubr
        26 callgsubr
        return
      </CharString>
      <CharString index="116">
        -18 -23 vvcurveto
        -74 return
      </CharString>
      <CharString index="117">
        hstemhm
        26 358 hintmask 10110000
        26 hmoveto
        346 hlineto
        12 64 rlineto
        -130 hlineto
        return
      </CharString>
      <CharString index="118">
        21 -2 callsubr
        return
      </CharString>
      <CharString index="119">
        102 509 rlineto
        -63 hlineto
        return
      </CharString>
      <CharString index="120">
        -61 -46 callsubr
        return
      </CharString>
      <CharString index="121">
        -58 vhcurveto
        39 -48 rlineto
        41 45 43 23 43 hhcurveto
        return
      </CharString>
      <CharString index="122">
        326 0 82 473 101 0 -20 return
      </CharString>
      <CharString index="123">
        vstem
        35 hmoveto
        78 hlineto
        return
      </CharString>
      <CharString index="124">
        -20 callgsubr
        -74 return
      </CharString>
      <CharString index="125">
        hlineto
        13 65 rlineto
        return
      </CharString>
      <CharString index="126">
        67 601 -20 return
      </CharString>
      <CharString index="127">
        28 callgsubr
        -51 callsubr
        return
      </CharString>
      <CharString index="128">
        rmoveto
        80 64 49 70 40 -21 26 -28 20 hvcurveto
        4 vlineto
        return
      </CharString>
      <CharString index="129">
        -193 35 callgsubr
        return
      </CharString>
      <CharString index="130">
        66 rlineto
        -276 hlineto
        return
      </CharString>
      <CharString index="131">
        101 -220 63 162 64 365 64 -12 -20 return
      </CharString>
      <CharString index="132">
        -53 -44 86 -73 hhcurveto
        -41 -45 -27 -62 -33 hvcurveto
        43 -28 rlineto
        43 22 23 18 29 hhcurveto
        return
      </CharString>
      <CharString index="133">
        64 -11 callgsubr
        return
      </CharString>
      <CharString index="134">
        60 326 65 return
      </CharString>
      <CharString index="135">
        13 callsubr
        -80 callsubr
        return
      </CharString>
      <CharString index="136">
        -12 64 -31 -21 434 64 return
      </CharString>
      <CharString index="137">
        66 221 64 262 67 return
      </CharString>
      <CharString index="138">
        49 161 44 111 49 return
      </CharString>
      <CharString index="139">
        712 -49 callgsubr
        return
      </CharString>
      <CharString index="140">
        49 172 44 86 51 return
      </CharString>
      <CharString index="141">
        66 525 65 return
      </CharString>
      <CharString index="142">
        21 -36 callsubr
        return
      </CharString>
      <CharString index="143">
        311 2 callsubr
        98 hlineto
        13 62 rlineto
        -99 hlineto
        return
      </CharString>
      <CharString index="144">
        -213 rmoveto
        39 27 35 34 return
      </CharString>
      <CharString index="145">
        -152 45 770 45 hstem
        return
      </CharString>
      <CharString index="146">
        76 -12 66 547 67 return
      </CharString>
      <CharString index="147">
        39 -39 78 hstemhm
        return
      </CharString>
      <CharString index="148">
        -76 hlineto
        -81 -402 rlineto
        -143 -28 -64 -56 -75 hhcurveto
        return
      </CharString>
      <CharString index="149">
        80 21 -21 589 67 return
      </CharString>
      <CharString index="150">
        -37 -48 -51 hvcurveto
        -4 hlineto
        return
      </CharString>
      <CharString index="151">
        rlineto
        190 hlineto
        return
      </CharString>
      <CharString index="152">
        -85 -60 -57 -33 -39 -48 hvcurveto
        -2 hlineto
        22 96 return
      </CharString>
      <CharString index="153">
        21 -21 176 62 316 84 0 -20 hstemhm
        return
      </CharString>
      <CharString index="154">
        -21 312 67 277 -20 return
      </CharString>
      <CharString index="155">
        120 -12 67 546 67 return
      </CharString>
      <CharString index="156">
        -8 rrcurveto
        hintmask 10110000
        -10 return
      </CharString>
      <CharString index="157">
        656 -49 callgsubr
        return
      </CharString>
      <CharString index="158">
        66 590 -20 hstem
        return
      </CharString>
      <CharString index="159">
        vstem
        166 hmoveto
        return
      </CharString>
      <CharString index="160">
        hlineto
        -13 -62 rlineto
        return
      </CharString>
      <CharString index="161">
        -12 50 220 50 44 50 220 50 return
      </CharString>
      <CharString index="162">
        125 21 8 callsubr
        return
      </CharString>
      <CharString index="163">
        62 362 62 return
      </CharString>
      <CharString index="164">
        hlineto
        13 66 rlineto
        return
      </CharString>
      <CharString index="165">
        vhcurveto
        3 hlineto
        hintmask 1101111110000000
        -47 9 return
      </CharString>
      <CharString index="166">
        570 213 hstem
        return
      </CharString>
      <CharString index="167">
        186 10 50 rcurveline
        return
      </CharString>
      <CharString index="168">
        hstem
        48 410 vstem
        return
      </CharString>
      <CharString index="169">
        53 44 -86 73 hhcurveto
        return
      </CharString>
      <CharString index="170">
        rlineto
        65 vlineto
        -412 return
      </CharString>
      <CharString index="171">
        hlineto
        10 45 rlineto
        return
      </CharString>
      <CharString index="172">
        165 hintmask 01100000
        return
      </CharString>
      <CharString index="173">
        rlineto
        -171 hlineto
        return
      </CharString>
      <CharString index="174">
        rmoveto
        458 hlineto
        10 50 rlineto
        -457 hlineto
        endchar
      </CharString>
      <CharString index="175">
        hlineto
        58 185 rlineto
        -51 hlineto
        -59 -185 rlineto
        return
      </CharString>
      <CharString index="176">
        -12 64 249 58 228 63 hstemhm
        return
      </CharString>
      <CharString index="177">
        545 hstem
        return
      </CharString>
      <CharString index="178">
        43 21 -21 297 66 228 65 return
      </CharString>
</ttFont>
